<mxfile host="app.diagrams.net" agent="Mozilla/5.0 (Macintosh; Intel Mac OS X 10_15_7) AppleWebKit/605.1.15 (KHTML, like Gecko) Version/16.6.1 Safari/605.1.15" version="24.8.3">
  <diagram name="Strona-1" id="uav9DTHJ9qYRCQgQxgOF">
    <mxGraphModel dx="794" dy="547" grid="1" gridSize="10" guides="1" tooltips="1" connect="1" arrows="1" fold="1" page="1" pageScale="1" pageWidth="827" pageHeight="1169" math="0" shadow="0">
      <root>
        <mxCell id="0" />
        <mxCell id="1" parent="0" />
        <mxCell id="E9g1ZKU07W0DP6ShGwB4-3" value="Użytkownik&lt;div&gt;&lt;br&gt;&lt;/div&gt;" style="shape=umlActor;verticalLabelPosition=bottom;verticalAlign=top;html=1;" parent="1" vertex="1">
          <mxGeometry x="384" y="500" width="30" height="60" as="geometry" />
        </mxCell>
        <mxCell id="E9g1ZKU07W0DP6ShGwB4-4" value="Tworzenie i programowanie makr" style="ellipse;whiteSpace=wrap;html=1;" parent="1" vertex="1">
          <mxGeometry x="200" y="490" width="120" height="80" as="geometry" />
        </mxCell>
        <mxCell id="E9g1ZKU07W0DP6ShGwB4-5" value="Usuwanie makr" style="ellipse;whiteSpace=wrap;html=1;" parent="1" vertex="1">
          <mxGeometry x="100" y="370" width="120" height="80" as="geometry" />
        </mxCell>
        <mxCell id="E9g1ZKU07W0DP6ShGwB4-6" value="Edytowanie Makr" style="ellipse;whiteSpace=wrap;html=1;" parent="1" vertex="1">
          <mxGeometry x="264" y="250" width="120" height="80" as="geometry" />
        </mxCell>
        <mxCell id="E9g1ZKU07W0DP6ShGwB4-7" value="Personalizacja UI" style="ellipse;whiteSpace=wrap;html=1;" parent="1" vertex="1">
          <mxGeometry x="480" y="490" width="120" height="80" as="geometry" />
        </mxCell>
        <mxCell id="E9g1ZKU07W0DP6ShGwB4-8" value="" style="endArrow=classic;html=1;rounded=0;exitX=0.5;exitY=0.5;exitDx=0;exitDy=0;exitPerimeter=0;entryX=1;entryY=0.5;entryDx=0;entryDy=0;" parent="1" source="E9g1ZKU07W0DP6ShGwB4-3" target="E9g1ZKU07W0DP6ShGwB4-4" edge="1">
          <mxGeometry width="50" height="50" relative="1" as="geometry">
            <mxPoint x="380" y="380" as="sourcePoint" />
            <mxPoint x="430" y="330" as="targetPoint" />
          </mxGeometry>
        </mxCell>
        <mxCell id="E9g1ZKU07W0DP6ShGwB4-9" value="" style="endArrow=classic;html=1;rounded=0;exitX=0.5;exitY=0.5;exitDx=0;exitDy=0;exitPerimeter=0;entryX=0;entryY=0.5;entryDx=0;entryDy=0;" parent="1" source="E9g1ZKU07W0DP6ShGwB4-3" target="E9g1ZKU07W0DP6ShGwB4-7" edge="1">
          <mxGeometry width="50" height="50" relative="1" as="geometry">
            <mxPoint x="380" y="380" as="sourcePoint" />
            <mxPoint x="430" y="330" as="targetPoint" />
          </mxGeometry>
        </mxCell>
        <mxCell id="E9g1ZKU07W0DP6ShGwB4-17" style="edgeStyle=orthogonalEdgeStyle;rounded=0;orthogonalLoop=1;jettySize=auto;html=1;exitX=0.5;exitY=0.5;exitDx=0;exitDy=0;exitPerimeter=0;entryX=0.5;entryY=0;entryDx=0;entryDy=0;" parent="1" source="E9g1ZKU07W0DP6ShGwB4-12" target="E9g1ZKU07W0DP6ShGwB4-15" edge="1">
          <mxGeometry relative="1" as="geometry" />
        </mxCell>
        <mxCell id="E9g1ZKU07W0DP6ShGwB4-12" value="Serwer&lt;div&gt;&lt;br&gt;&lt;/div&gt;" style="shape=umlActor;verticalLabelPosition=bottom;verticalAlign=top;html=1;outlineConnect=0;" parent="1" vertex="1">
          <mxGeometry x="459" y="100" width="30" height="60" as="geometry" />
        </mxCell>
        <mxCell id="E9g1ZKU07W0DP6ShGwB4-13" value="Wysłanie żądania do odpalenia makra" style="ellipse;whiteSpace=wrap;html=1;" parent="1" vertex="1">
          <mxGeometry x="414" y="400" width="120" height="80" as="geometry" />
        </mxCell>
        <mxCell id="E9g1ZKU07W0DP6ShGwB4-14" value="" style="endArrow=classic;html=1;rounded=0;exitX=0.5;exitY=0.5;exitDx=0;exitDy=0;exitPerimeter=0;entryX=0.5;entryY=1;entryDx=0;entryDy=0;" parent="1" source="E9g1ZKU07W0DP6ShGwB4-3" target="E9g1ZKU07W0DP6ShGwB4-13" edge="1">
          <mxGeometry width="50" height="50" relative="1" as="geometry">
            <mxPoint x="380" y="380" as="sourcePoint" />
            <mxPoint x="430" y="330" as="targetPoint" />
          </mxGeometry>
        </mxCell>
        <mxCell id="E9g1ZKU07W0DP6ShGwB4-15" value="Potwierdzenie żądanie" style="ellipse;whiteSpace=wrap;html=1;" parent="1" vertex="1">
          <mxGeometry x="414" y="240" width="120" height="80" as="geometry" />
        </mxCell>
        <mxCell id="E9g1ZKU07W0DP6ShGwB4-20" value="" style="endArrow=classic;html=1;rounded=0;dashed=1;exitX=0.5;exitY=1;exitDx=0;exitDy=0;entryX=0.5;entryY=0;entryDx=0;entryDy=0;" parent="1" source="E9g1ZKU07W0DP6ShGwB4-15" target="E9g1ZKU07W0DP6ShGwB4-13" edge="1">
          <mxGeometry width="50" height="50" relative="1" as="geometry">
            <mxPoint x="380" y="380" as="sourcePoint" />
            <mxPoint x="430" y="330" as="targetPoint" />
          </mxGeometry>
        </mxCell>
        <mxCell id="E9g1ZKU07W0DP6ShGwB4-21" value="{Extends}" style="text;html=1;align=center;verticalAlign=middle;whiteSpace=wrap;rounded=0;" parent="1" vertex="1">
          <mxGeometry x="480" y="335" width="60" height="30" as="geometry" />
        </mxCell>
        <mxCell id="mI-5WzDm7i-c9hzyWy1A-1" value="Zobacz listę makr" style="ellipse;whiteSpace=wrap;html=1;" vertex="1" parent="1">
          <mxGeometry x="264" y="400" width="120" height="80" as="geometry" />
        </mxCell>
        <mxCell id="mI-5WzDm7i-c9hzyWy1A-2" value="" style="endArrow=classic;html=1;rounded=0;exitX=0.5;exitY=0.5;exitDx=0;exitDy=0;exitPerimeter=0;entryX=1;entryY=1;entryDx=0;entryDy=0;" edge="1" parent="1" source="E9g1ZKU07W0DP6ShGwB4-3" target="mI-5WzDm7i-c9hzyWy1A-1">
          <mxGeometry width="50" height="50" relative="1" as="geometry">
            <mxPoint x="380" y="400" as="sourcePoint" />
            <mxPoint x="430" y="350" as="targetPoint" />
          </mxGeometry>
        </mxCell>
        <mxCell id="mI-5WzDm7i-c9hzyWy1A-3" value="" style="endArrow=classic;html=1;rounded=0;dashed=1;exitX=0.5;exitY=1;exitDx=0;exitDy=0;entryX=0.5;entryY=0;entryDx=0;entryDy=0;" edge="1" parent="1" source="E9g1ZKU07W0DP6ShGwB4-6" target="mI-5WzDm7i-c9hzyWy1A-1">
          <mxGeometry width="50" height="50" relative="1" as="geometry">
            <mxPoint x="484" y="330" as="sourcePoint" />
            <mxPoint x="484" y="410" as="targetPoint" />
          </mxGeometry>
        </mxCell>
        <mxCell id="mI-5WzDm7i-c9hzyWy1A-4" value="" style="endArrow=classic;html=1;rounded=0;dashed=1;entryX=0;entryY=0;entryDx=0;entryDy=0;" edge="1" parent="1" source="E9g1ZKU07W0DP6ShGwB4-5" target="mI-5WzDm7i-c9hzyWy1A-1">
          <mxGeometry width="50" height="50" relative="1" as="geometry">
            <mxPoint x="290" y="340" as="sourcePoint" />
            <mxPoint x="334" y="410" as="targetPoint" />
          </mxGeometry>
        </mxCell>
        <mxCell id="mI-5WzDm7i-c9hzyWy1A-5" value="{Extends}" style="text;html=1;align=center;verticalAlign=middle;whiteSpace=wrap;rounded=0;" vertex="1" parent="1">
          <mxGeometry x="220" y="380" width="60" height="30" as="geometry" />
        </mxCell>
        <mxCell id="mI-5WzDm7i-c9hzyWy1A-6" value="{Extends}" style="text;html=1;align=center;verticalAlign=middle;whiteSpace=wrap;rounded=0;" vertex="1" parent="1">
          <mxGeometry x="324" y="340" width="60" height="30" as="geometry" />
        </mxCell>
      </root>
    </mxGraphModel>
  </diagram>
</mxfile>
